<svg id="Capa_1" enable-background="new 0 0 506.161 506.161" height="512" viewBox="0 0 506.161 506.161" width="512" xmlns="http://www.w3.org/2000/svg"><g><path d="m504.357 157.789-45.39-104.27c-2.627-6.033-8.576-9.932-15.156-9.932h-381.459c-6.581 0-12.53 3.899-15.156 9.932l-45.393 104.274c-3.322 7.633-1.98 16.659 3.419 22.995l235.187 275.978c3.145 3.691 7.729 5.808 12.579 5.809h.003c4.848 0 9.432-2.116 12.578-5.804l79.076-92.721c2.688-3.151 2.312-7.885-.84-10.573-3.15-2.688-7.885-2.312-10.573.84l-62.281 73.028 98.188-252.55h117.196l-131.157 153.787c-2.688 3.151-2.312 7.885.84 10.573 3.151 2.688 7.885 2.312 10.573-.84l134.343-157.525c5.404-6.336 6.748-15.365 3.423-23.001zm-15.486 2.005h-110.126l68.922-94.653zm-318.841 97.8 66.82 171.87-217.027-254.67h118.015l20.599 52.983c1.154 2.968 3.988 4.785 6.992 4.784.903 0 1.823-.165 2.716-.512 3.86-1.501 5.773-5.847 4.272-9.708l-18.486-47.548h199.111l-99.555 256.068-69.477-178.703c-1.501-3.86-5.848-5.773-9.708-4.272s-5.773 5.847-4.272 9.708zm111.843-199.007 17.158 25.517c1.448 2.153 3.817 3.316 6.23 3.316 1.439 0 2.894-.414 4.178-1.277 3.438-2.311 4.35-6.971 2.039-10.409l-11.53-17.147h133.935l-69.633 95.63-34.646-51.526c-2.311-3.438-6.971-4.351-10.409-2.039-3.437 2.311-4.35 6.971-2.039 10.409l32.768 48.733h-192.874l68.052-101.207zm-139.148 95.63-69.633-95.63h133.935zm-83.925-89.774 69.43 95.351h-110.938z"/><path d="m113.839 385.977c-3.664-2.333-8.201-2.631-12.139-.793l-38.799 18.107c-5.94 2.771-8.802 9.738-6.514 15.858 7.391 19.776 24.209 30.479 49.988 31.814.216.011.432.017.647.017 3.229 0 6.379-1.249 8.729-3.48 2.503-2.377 3.939-5.719 3.939-9.168v-41.69c.001-4.344-2.187-8.331-5.851-10.665zm-9.148 49.842c-23.811-1.97-30.861-13.761-33.447-19.868l33.447-15.609z"/><path d="m98.251 344.768c.945-4.24-.322-8.607-3.391-11.682l-30.244-30.308c-4.63-4.64-12.154-4.956-17.128-.72-16.074 13.687-20.406 33.146-12.877 57.838 1.008 3.307 3.36 6.089 6.453 7.635 1.768.883 3.713 1.33 5.662 1.33 1.455 0 2.912-.249 4.298-.751l39.195-14.206c4.084-1.481 7.087-4.896 8.032-9.136zm-49.976 8.383c-6.261-23.057 2.421-33.703 7.283-38.215l26.071 26.126z"/><path d="m444.075 403.291-38.8-18.107c-3.936-1.837-8.474-1.541-12.139.793-3.664 2.333-5.852 6.32-5.852 10.665v41.69c0 3.45 1.436 6.792 3.939 9.168 2.35 2.231 5.5 3.48 8.729 3.48.215 0 .431-.006.647-.017 25.779-1.334 42.598-12.038 49.989-31.814 2.288-6.12-.573-13.086-6.513-15.858zm-41.79 32.528v-35.478l33.447 15.609c-2.586 6.108-9.636 17.898-33.447 19.869z"/><path d="m459.488 302.058c-4.975-4.237-12.499-3.92-17.129.72l-30.243 30.308c-3.069 3.075-4.336 7.442-3.391 11.682s3.948 7.655 8.033 9.136l39.194 14.205c1.387.503 2.844.752 4.299.752 1.949 0 3.894-.447 5.662-1.33 3.092-1.546 5.444-4.329 6.453-7.635 7.528-24.692 3.196-44.151-12.878-57.838zm-.787 51.093-33.354-12.088 26.071-26.126c4.861 4.511 13.543 15.156 7.283 38.214z"/></g></svg>